<svg width="54" height="54" viewBox="0 0 54 54" fill="none" xmlns="http://www.w3.org/2000/svg">
<path d="M4.63574 19.4395L15.7099 25.5151L9.08188 37.6331L4.388 35.0658" stroke="black" stroke-linecap="round"/>
<path d="M11.813 23.3838L5.185 35.5018" stroke="black"/>
<path d="M48.2741 19.7001L36.8916 26.6272L44.0721 38.4262L48.6424 35.6448" stroke="black" stroke-linecap="round"/>
<path d="M47.8672 36.1179L40.6867 24.3189" stroke="black"/>
<path d="M29.0156 37.8619L36.4898 44.321C37.2574 44.9844 38.4175 44.8999 39.0808 44.1322V44.1322C39.7263 43.3854 39.6661 42.262 38.9446 41.5884L31.6672 34.7935L29.0244 31.7695" stroke="black" stroke-linecap="round" stroke-linejoin="round"/>
<path d="M25.4842 28.6939C23.1925 27.8962 16.9897 28.1642 15.2892 26.6863" stroke="black" stroke-linecap="round" stroke-linejoin="round"/>
<path d="M29.0156 37.8618L35.8341 43.7543C36.5873 44.4052 36.6702 45.5434 36.0193 46.2965V46.2965C35.3685 47.0497 34.2303 47.1326 33.4771 46.4817L27.3405 41.1785" stroke="black" stroke-linecap="round"/>
<path d="M27.3408 41.1787L32.7956 45.8927C33.5488 46.5436 33.6317 47.6818 32.9808 48.4349V48.4349C32.33 49.1881 31.1918 49.271 30.4386 48.6201L25.6657 44.4954" stroke="black" stroke-linecap="round"/>
<path d="M25.6655 44.4951L29.7454 48.0209C30.5048 48.6772 30.5884 49.8247 29.9321 50.5841V50.5841C29.2835 51.3346 28.1529 51.4263 27.3918 50.7902L25.5002 49.2091" stroke="black" stroke-linecap="round"/>
<path d="M43.2683 37.506L39.0923 41.385" stroke="black"/>
<path d="M14.8458 39.3528L10.0182 36.3231" stroke="black"/>
<path d="M33.8922 29.2957L33.8033 29.7877L33.8922 29.2957ZM29.4011 31.9757C29.5336 31.7334 29.4447 31.4296 29.2024 31.297C28.9601 31.1645 28.6563 31.2535 28.5238 31.4958L29.4011 31.9757ZM37.3088 27.7896C36.9547 27.997 36.3472 28.3018 35.6992 28.5283C35.0317 28.7617 34.4076 28.8806 33.981 28.8036L33.8033 29.7877C34.4986 29.9132 35.3314 29.7162 36.0292 29.4723C36.7464 29.2215 37.4126 28.8877 37.8142 28.6525L37.3088 27.7896ZM33.981 28.8036C33.3431 28.6884 32.4577 28.3271 31.5402 27.9572C31.0951 27.7777 30.6475 27.5988 30.2461 27.4628C29.8558 27.3305 29.4594 27.2207 29.1294 27.2086L29.0925 28.2079C29.266 28.2143 29.5436 28.2806 29.9251 28.4098C30.2954 28.5354 30.7172 28.7036 31.1663 28.8846C32.0371 29.2358 33.0389 29.6496 33.8033 29.7877L33.981 28.8036ZM29.1294 27.2086C28.5484 27.1871 27.7789 27.3283 27.0686 27.5363C26.3583 27.7444 25.6342 28.0406 25.1566 28.372L25.7267 29.1936C26.0769 28.9506 26.6839 28.691 27.3497 28.496C28.0154 28.3011 28.6666 28.1922 29.0925 28.2079L29.1294 27.2086ZM25.1566 28.372C24.762 28.6459 24.2142 28.9671 23.6415 29.3026C23.0807 29.6311 22.4949 29.9738 22.0617 30.2744L22.6318 31.096C23.0264 30.8222 23.5742 30.5009 24.1469 30.1655C24.7078 29.8369 25.2935 29.4942 25.7267 29.1936L25.1566 28.372ZM22.0617 30.2744C21.8179 30.4436 21.5768 30.6643 21.3969 30.9176C21.2215 31.1645 21.069 31.4938 21.1012 31.8608C21.136 32.2573 21.3741 32.5781 21.7413 32.8012C22.0931 33.0149 22.5845 33.1559 23.2195 33.2325L23.3393 32.2397C22.7698 32.171 22.4388 32.0548 22.2605 31.9465C22.0977 31.8476 22.0981 31.7815 22.0974 31.7734C22.0941 31.7359 22.1084 31.6428 22.2121 31.4967C22.3114 31.3569 22.4618 31.214 22.6318 31.096L22.0617 30.2744ZM23.2195 33.2325C24.4985 33.3867 25.9249 33.2256 27.0492 32.9817C27.6138 32.8592 28.1166 32.7128 28.4999 32.5669C28.6904 32.4944 28.8624 32.4179 29.0014 32.3392C29.0708 32.2998 29.1409 32.255 29.2039 32.204C29.2614 32.1575 29.3427 32.0825 29.4011 31.9757L28.5238 31.4958C28.5552 31.4384 28.5873 31.4166 28.575 31.4266C28.5683 31.432 28.5481 31.4466 28.5085 31.4691C28.4295 31.5138 28.3084 31.5699 28.1442 31.6324C27.8181 31.7565 27.3653 31.8899 26.8373 32.0044C25.7764 32.2345 24.4693 32.3759 23.3393 32.2397L23.2195 33.2325Z" fill="black"/>
<circle cx="27" cy="12" r="11" fill="url(#paint0_linear_4684_885)"/>
<path d="M25.4819 16.0559C25.4819 16.3287 25.703 16.5498 25.9758 16.5498C26.2486 16.5498 26.4698 16.3287 26.4698 16.0558V14.8645H28.8718C29.182 14.8645 29.4335 14.613 29.4335 14.3028C29.4335 13.9925 29.182 13.741 28.8718 13.741H26.4698V12.6175H28.6926C30.0544 12.6175 31.1624 11.3575 31.1624 9.80877C31.1624 8.26001 30.0544 7 28.6926 7H25.9758C25.8448 7 25.7192 7.05918 25.6265 7.16453C25.5339 7.26988 25.4819 7.41277 25.4819 7.56175V11.494H24.5618C24.2515 11.494 24 11.7455 24 12.0558C24 12.366 24.2515 12.6175 24.5618 12.6175H25.4819V13.741H24.5618C24.2515 13.741 24 13.9925 24 14.3028C24 14.613 24.2515 14.8645 24.5618 14.8645H25.4819V16.0559ZM26.4698 8.12351H28.6926C29.5096 8.12351 30.1744 8.87963 30.1744 9.80877C30.1744 10.7379 29.5096 11.494 28.6926 11.494H26.4698V8.12351Z" fill="black"/>
<path fill-rule="evenodd" clip-rule="evenodd" d="M15.9411 42.1582L18.2285 40.0019C18.5841 39.5228 18.5565 38.8435 18.1329 38.3942C17.6575 37.8898 16.8632 37.8664 16.3589 38.3418L14.3942 40.1938C13.8898 40.6692 13.8664 41.4635 14.3418 41.9679C14.7653 42.4171 15.4418 42.4848 15.9411 42.1582ZM14.9778 43.345C14.4745 43.2829 13.9891 43.0516 13.6141 42.6538C12.7599 41.7475 12.802 40.3204 13.7082 39.4661L15.6729 37.6141C16.5792 36.7599 18.0064 36.802 18.8606 37.7082C19.2161 38.0854 19.4164 38.5528 19.4637 39.0315C20.3066 38.6758 21.3175 38.8579 21.9819 39.5627C22.4682 40.0786 22.664 40.7632 22.5754 41.4148C23.2313 41.3646 23.9033 41.6005 24.3897 42.1164C25.1561 42.9296 25.201 44.1621 24.5474 45.0239C25.0326 45.0948 25.4982 45.3237 25.8606 45.7082C26.7149 46.6145 26.6727 48.0416 25.7665 48.8959L23.8018 50.7479C22.8955 51.6022 21.4684 51.56 20.6141 50.6538C20.1626 50.1748 19.9615 49.5502 20.0061 48.9417C19.2448 49.1256 18.409 48.9073 17.8334 48.2967C17.3471 47.7808 17.1513 47.0962 17.2399 46.4446C16.584 46.4948 15.912 46.2589 15.4256 45.7429C14.8004 45.0797 14.6554 44.1375 14.9778 43.345ZM21.2159 42.0093C21.2112 42.0136 21.2066 42.018 21.202 42.0223L17.9275 45.109C17.9228 45.1134 17.9181 45.1179 17.9134 45.1224C17.4084 45.5844 16.6244 45.5567 16.1533 45.057C15.6779 44.5527 15.7013 43.7584 16.2057 43.283L16.5714 42.9382C16.6512 42.8807 16.7282 42.8172 16.8018 42.7479L18.7665 40.8959C18.84 40.8266 18.9079 40.7535 18.97 40.6772L19.4802 40.1963C19.9846 39.7208 20.7788 39.7443 21.2543 40.2487C21.7253 40.7483 21.7066 41.5325 21.2159 42.0093ZM18.5994 45.85C18.1087 46.3269 18.09 47.1111 18.561 47.6107C19.0364 48.1151 19.8307 48.1385 20.3351 47.6631L23.6096 44.5764C24.114 44.101 24.1374 43.3067 23.662 42.8024C23.1909 42.3026 22.4069 42.275 21.9019 42.737C21.8972 42.7415 21.8925 42.7459 21.8878 42.7504L18.6133 45.8371C18.6087 45.8414 18.6041 45.8457 18.5994 45.85ZM23.1158 50.0202L25.0806 48.1682C25.5849 47.6928 25.6084 46.8985 25.1329 46.3942C24.6575 45.8898 23.8632 45.8664 23.3589 46.3418L21.3942 48.1938C20.8898 48.6692 20.8664 49.4635 21.3418 49.9679C21.8172 50.4722 22.6115 50.4957 23.1158 50.0202Z" fill="black"/>
<defs>
<linearGradient id="paint0_linear_4684_885" x1="16" y1="12" x2="37.9796" y2="12" gradientUnits="userSpaceOnUse">
<stop stop-color="#16FF00"/>
<stop offset="1" stop-color="#4DFFC9"/>
<stop offset="1" stop-color="#4DFFC9"/>
</linearGradient>
</defs>
</svg>
