<svg width="55" height="54" viewBox="0 0 55 54" fill="none" xmlns="http://www.w3.org/2000/svg">
<path fill-rule="evenodd" clip-rule="evenodd" d="M41.4467 32.4207L40.9265 36.5415L33.7157 35.6311L34.2338 31.5271C32.8385 30.8916 31.6016 29.972 30.5237 28.7676L26.6597 30.4334L23.7255 23.8951L27.6072 22.232C27.565 21.8244 27.5479 21.4033 27.5557 20.9679C27.5658 20.7047 27.5812 20.4422 27.6025 20.1811C27.6211 20.0339 27.6403 19.8818 27.6603 19.7229C27.7702 18.8529 27.9625 18.0267 28.2368 17.2457L24.8881 14.6871L29.3554 9.08298L32.7189 11.6616C34.0479 10.7841 35.4618 10.2047 36.9615 9.92291L37.4796 5.81895L44.6904 6.72936L44.1723 10.8333C44.9463 11.1955 45.6746 11.6438 46.3567 12.1774C46.5586 12.3407 46.7602 12.5095 46.9602 12.6844C47.2645 12.9643 47.5611 13.2599 47.8499 13.572L51.766 11.9125L54.7002 18.4511L50.8012 20.1127C50.8742 20.9258 50.8556 21.7676 50.7458 22.6376C50.6372 23.4973 50.4468 24.3111 50.1739 25.0812L53.5376 27.6591L49.0703 33.2629L45.7067 30.6846C44.3763 31.5731 42.9565 32.152 41.4467 32.4207ZM40.2467 26.4807C40.977 26.3544 41.6619 26.079 42.301 25.6544C42.4032 25.5873 42.4997 25.5195 42.5905 25.4502C43.5102 24.7507 44.1303 23.8755 44.4503 22.8247C44.5478 22.5162 44.6172 22.1971 44.6586 21.869C44.6772 21.7224 44.6894 21.5806 44.695 21.4435C44.7078 21.2496 44.709 21.0542 44.6986 20.858C44.6942 20.8004 44.6906 20.7366 44.6876 20.6673C44.6029 19.6684 44.222 18.742 43.5454 17.8869C43.4747 17.7972 43.3981 17.7075 43.3158 17.6171C42.7922 17.0339 42.1924 16.59 41.5164 16.2868C41.0177 16.0631 40.4741 15.9137 39.8862 15.8395C39.8052 15.8293 39.7189 15.8184 39.6267 15.8068C39.1397 15.7682 38.6627 15.7887 38.196 15.8676C37.4543 15.9918 36.7571 16.2719 36.105 16.7067C36.0144 16.7753 35.9237 16.8439 35.833 16.9131C35.4574 17.1984 35.1305 17.5134 34.8529 17.8576C34.4516 18.3463 34.159 18.901 33.975 19.5208C33.8777 19.8307 33.8074 20.1545 33.7646 20.4936C33.7217 20.8333 33.7044 21.1582 33.7117 21.4689C33.772 22.5677 34.1607 23.5702 34.8781 24.4764C34.9487 24.5661 35.0203 24.6489 35.0923 24.7276C35.1024 24.74 35.1126 24.7524 35.1226 24.7655C35.2971 24.9601 35.4742 25.137 35.6526 25.298C36.0352 25.6101 36.4422 25.8626 36.8747 26.055C37.3834 26.2918 37.9376 26.4474 38.5373 26.5231C39.1367 26.5988 39.7066 26.5851 40.2467 26.4807Z" fill="url(#paint0_linear_4684_873)"/>
<path d="M15.4575 22.1053C15.9392 21.919 16.371 21.6743 16.7468 21.367C17.2517 20.9686 17.66 20.4761 17.9701 19.8951C18.0197 19.8031 18.0659 19.7106 18.1079 19.6177C18.5188 18.7121 18.6353 17.7807 18.4465 16.8378L18.4474 16.8375C18.3945 16.5602 18.3153 16.2875 18.2121 16.0207C18.1679 15.9062 18.1198 15.7959 18.0685 15.6898L18.0682 15.6889C17.9972 15.5337 17.9173 15.3822 17.8278 15.2353L17.8205 15.2245C17.8001 15.1927 17.7775 15.1552 17.7522 15.1128L17.7468 15.1043L17.7411 15.095C17.3171 14.4466 16.7417 13.9415 16.0287 13.5773L15.7154 13.4304C15.6218 13.3899 15.5255 13.3526 15.4269 13.3179C14.7933 13.0908 14.1506 12.9976 13.5037 13.0449C13.0273 13.0797 12.5522 13.1898 12.0806 13.3721L11.8802 13.4496L11.8697 13.4548C11.4865 13.6239 11.1332 13.8349 10.8103 14.0863L10.8091 14.0858C10.2896 14.4893 9.87156 14.9937 9.55449 15.5907L9.54708 15.604L9.54094 15.6179C9.50445 15.6978 9.46748 15.7789 9.43059 15.8606L9.43186 15.8611C9.26479 16.2287 9.14345 16.6025 9.07271 16.9821L9.07398 16.9827C8.96811 17.5278 8.97234 18.0779 9.08654 18.629C9.14009 18.9069 9.21998 19.1826 9.32598 19.4567C9.43018 19.7262 9.5486 19.9776 9.68127 20.2104L9.685 20.2173L9.68964 20.2239C10.1297 20.9424 10.7334 21.4985 11.4898 21.8899L11.824 22.0476C11.9143 22.0867 12.0014 22.1201 12.0854 22.1496L12.1082 22.1597L12.1255 22.1666L12.4339 22.2682C12.5354 22.2988 12.6357 22.3265 12.7349 22.3508L12.7599 22.3558C13.1749 22.4354 13.588 22.4613 13.9982 22.4308L13.9973 22.4312C14.4882 22.4022 14.9755 22.2917 15.4575 22.1053ZM13.0103 9.35641L13.3742 9.33613C13.9966 9.3007 14.62 9.3359 15.2444 9.44222C15.4317 9.47741 15.62 9.51703 15.8092 9.55991C16.1072 9.63573 16.407 9.7238 16.7069 9.82634L17.0397 9.93954L17.2595 9.66605L19.0188 7.47074L22.6421 10.2505L20.906 12.4243L20.6798 12.7086L20.88 13.0123C21.2083 13.509 21.4898 14.0588 21.7234 14.6629C21.954 15.2592 22.1141 15.8513 22.2056 16.4407L22.2615 16.7992L22.6201 16.8573L25.3675 17.2985L24.5564 21.7919L21.791 21.3472L21.438 21.29L21.2703 21.6061C20.7192 22.6456 20.0055 23.5103 19.1291 24.2057L18.8407 24.4345L19.9564 27.32L15.6245 28.9951L14.5136 26.1223L14.1463 26.147C13.031 26.2221 11.9156 26.0598 10.7965 25.6561L10.4584 25.5345L10.2346 25.8168L8.51403 27.993L4.89233 25.2147L6.61575 23.0458L6.8445 22.7574L6.63782 22.4531C6.55429 22.3304 6.47307 22.2029 6.39468 22.0707L6.16692 21.6604L5.9312 21.1537L5.80194 20.8194C5.56838 20.2153 5.40537 19.6138 5.31079 19.0158L5.25399 18.6577L4.89484 18.6007L2.16792 18.1663L2.97836 13.6742L5.74253 14.1184L6.09425 14.175L6.26217 13.8619C6.81709 12.8282 7.52823 11.963 8.39554 11.2613L8.67873 11.0324L7.56895 8.16233L11.9009 6.48726L13.0103 9.35641Z" stroke="black"/>
<path d="M24.5492 45.1861C24.8738 45.0817 25.1762 44.9466 25.4535 44.7793L25.7141 44.6073C26.1825 44.2812 26.5698 43.8662 26.8738 43.3684C26.9221 43.2901 26.9679 43.2108 27.0097 43.1308C27.4173 42.3549 27.5685 41.5394 27.4501 40.6984C27.4176 40.4514 27.3618 40.207 27.2845 39.9669C27.2516 39.8645 27.2152 39.7654 27.1756 39.6696L27.1753 39.6687C27.1479 39.5984 27.1182 39.5289 27.0867 39.4602L26.986 39.2556L26.9805 39.245C26.9648 39.2173 26.947 39.1847 26.9275 39.1472L26.9224 39.1376L26.9175 39.1289C26.5277 38.4502 25.9538 37.9278 25.2172 37.5585C25.1377 37.5184 25.0556 37.4816 24.972 37.4466L24.9717 37.4456C24.4252 37.2131 23.8626 37.098 23.289 37.1068C22.8672 37.1131 22.4432 37.186 22.0196 37.3222L21.8299 37.3832C21.4841 37.5126 21.1626 37.6812 20.8654 37.8864C20.3869 38.2157 19.9922 38.6378 19.6829 39.1469L19.6747 39.1598L19.6678 39.1733C19.6322 39.2408 19.5968 39.31 19.5606 39.3791C19.3952 39.6936 19.2695 40.0166 19.1879 40.3474L19.1891 40.348C19.0675 40.8257 19.0432 41.3137 19.1169 41.8074L19.1181 41.8081C19.1513 42.0527 19.2056 42.2969 19.284 42.5405C19.3617 42.7822 19.4533 43.0091 19.5582 43.2207L19.5615 43.2278L19.5658 43.2347C19.9172 43.8909 20.4217 44.4118 21.0679 44.7949L21.3528 44.9505C21.4251 44.9869 21.4955 45.0175 21.5631 45.046L21.5621 45.0463C21.572 45.0511 21.5757 45.0525 21.5778 45.0536L21.595 45.0624L21.6128 45.07L21.8776 45.1756C21.9652 45.2076 22.0524 45.2357 22.1383 45.262L22.15 45.2665L22.162 45.2688L22.4347 45.3288C22.7056 45.3791 22.9771 45.4026 23.249 45.3982L23.2481 45.3985C23.6822 45.3979 24.1164 45.3253 24.5492 45.1861ZM22.9988 34.0169L23.3629 34.0167C23.8983 34.0172 24.4314 34.0781 24.9617 34.2L24.9607 34.2003C25.1235 34.2407 25.2874 34.2844 25.4513 34.3318C25.7016 34.4113 25.952 34.5018 26.2026 34.6041L26.5283 34.7363L26.7633 34.475L28.3557 32.7092L31.2571 35.2135L29.6886 36.9613L29.4455 37.2324L29.6284 37.5459C29.8855 37.9884 30.0997 38.4752 30.2706 39.0064C30.4392 39.5305 30.5481 40.0475 30.5973 40.558L30.6315 40.9194L30.9871 40.9978L33.2804 41.5034L32.3833 45.2297L30.0718 44.7186L29.7221 44.6423L29.5363 44.9483C29.0111 45.8142 28.355 46.5207 27.5683 47.074L27.2671 47.2858L28.0844 49.8265L24.3714 51.0209L23.5577 48.4913L23.1895 48.4949C22.2287 48.5039 21.2792 48.3099 20.3375 47.9074L20.0066 47.7656L19.7669 48.0345L18.2093 49.7871L15.31 47.2831L16.8673 45.5389L17.1126 45.2651L16.9239 44.9493C16.8584 44.84 16.7951 44.7264 16.7344 44.6091L16.5588 44.245L16.3756 43.7808L16.2868 43.5047C16.116 42.9737 16.0053 42.4485 15.9538 41.9304L15.9187 41.5693L15.5634 41.4918L13.2867 40.9932L14.1832 37.2682L16.4944 37.7783L16.8423 37.8551L17.0286 37.5511C17.557 36.6902 18.2104 35.9829 18.9898 35.4235L19.2858 35.2113L18.4733 32.6855L22.1863 31.4911L22.9988 34.0169Z" stroke="black"/>
<defs>
<linearGradient id="paint0_linear_4684_873" x1="54.1178" y1="23.0633" x2="24.3334" y2="19.3028" gradientUnits="userSpaceOnUse">
<stop stop-color="#16FF00"/>
<stop offset="1" stop-color="#4DFFC9"/>
<stop offset="1" stop-color="#4DFFC9"/>
</linearGradient>
</defs>
</svg>
