<svg width="54" height="54" viewBox="0 0 54 54" fill="none" xmlns="http://www.w3.org/2000/svg">
<path d="M27.2759 15.5C30.3134 15.5 32.7759 17.9624 32.7759 21C32.7759 22.5403 32.1443 24.4434 31.106 25.96C30.0593 27.4886 28.6908 28.5 27.2759 28.5C25.8609 28.5 24.4925 27.4886 23.4458 25.96C22.4075 24.4434 21.7759 22.5403 21.7759 21C21.7759 17.9624 24.2383 15.5 27.2759 15.5Z" stroke="black"/>
<path d="M22.2759 30.5H22.3491C22.6433 30.5 22.9228 30.6299 23.1128 30.8545L26.894 35.3232L27.2759 35.7744L27.6577 35.3232L31.439 30.8545C31.629 30.6299 31.9085 30.5 32.2026 30.5H32.2759C35.3134 30.5 37.7759 32.9624 37.7759 36V42C37.7759 42.2761 37.552 42.5 37.2759 42.5H17.2759C16.9997 42.5 16.7759 42.2761 16.7759 42V36C16.7759 32.9624 19.2383 30.5 22.2759 30.5Z" stroke="black"/>
<path d="M42.0347 18.5C44.3866 18.5001 46.2935 20.4069 46.2935 22.7588C46.2934 23.9562 45.8004 25.4454 44.9868 26.6338C44.1648 27.8343 43.1068 28.6034 42.0347 28.6035C40.9625 28.6035 39.9045 27.8344 39.0825 26.6338C38.2688 25.4454 37.7759 23.9563 37.7759 22.7588C37.7759 20.4068 39.6827 18.5 42.0347 18.5Z" stroke="black"/>
<path d="M41.0342 33.862L44.3027 30.3211C44.5526 30.0504 44.9041 29.8965 45.2725 29.8965V29.8965C48.188 29.8965 50.5514 32.2599 50.5514 35.1754V38.9999C50.5514 39.5522 50.1037 39.9999 49.5514 39.9999H41.0342" stroke="black"/>
<path d="M12.5171 18.5C10.1652 18.5001 8.2583 20.4069 8.2583 22.7588C8.25835 23.9562 8.75132 25.4454 9.56494 26.6338C10.3869 27.8343 11.445 28.6034 12.5171 28.6035C13.5892 28.6035 14.6472 27.8344 15.4692 26.6338C16.2829 25.4454 16.7758 23.9563 16.7759 22.7588C16.7759 20.4068 14.8691 18.5 12.5171 18.5Z" stroke="black"/>
<path d="M13.5176 33.862L10.249 30.3211C9.99919 30.0504 9.64761 29.8965 9.27928 29.8965V29.8965C6.3638 29.8965 4.00034 32.2599 4.00034 35.1754V38.9999C4.00034 39.5522 4.44805 39.9999 5.00034 39.9999H13.5176" stroke="black"/>
<circle cx="35.5" cy="13.5" r="7.5" fill="url(#paint0_linear_5921_697)"/>
<path d="M32 12.7978L34.8765 15.6742L39.5507 11" stroke="black" stroke-width="2"/>
<defs>
<linearGradient id="paint0_linear_5921_697" x1="28" y1="13.5" x2="42.9861" y2="13.5" gradientUnits="userSpaceOnUse">
<stop stop-color="#16FF00"/>
<stop offset="1" stop-color="#4DFFC9"/>
<stop offset="1" stop-color="#4DFFC9"/>
</linearGradient>
</defs>
</svg>
