<svg width="60" height="38" viewBox="0 0 60 38" fill="none" xmlns="http://www.w3.org/2000/svg">
<path d="M0.899414 0H15.9188L21.551 11.2645L15.9188 37.5484H0.899414L6.53167 11.2645L0.899414 0Z" fill="#D9D9D9"/>
<path d="M0.899414 0H15.9188L21.551 11.2645L15.9188 37.5484L0.899414 0Z" fill="#ADAFB2"/>
<path d="M19.6738 0H34.6932L40.3254 11.2645L34.6932 37.5484H19.6738L25.3061 11.2645L19.6738 0Z" fill="#75BEE9"/>
<path d="M38.4482 0H53.4676L59.0999 11.2645L53.4676 37.5484H38.4482L44.0805 11.2645L38.4482 0Z" fill="#F37164"/>
<path d="M19.6738 0H34.6932L40.3254 11.2645L34.6932 37.5484L19.6738 0Z" fill="#0072BC"/>
<path d="M38.4482 0H53.4676L59.0999 11.2645L53.4676 37.5484L38.4482 0Z" fill="#ED1B35"/>
</svg>
